<svg id="fd8c0f33-4ce0-4d43-980f-dcd7b190a65b" data-name="Layer 1" xmlns="http://www.w3.org/2000/svg" width="830.94185" height="469.30146" viewBox="0 0 830.94185 469.30146"><ellipse cx="505.68086" cy="417.30146" rx="294" ry="52" fill="#f0f0f0"/><path d="M963.56836,533.15039H412.56885v-93.543h8.5v-69.626a61.94382,61.94382,0,0,1,61.874-61.874H894.19434a61.94413,61.94413,0,0,1,61.874,61.874v69.626h7.5Z" transform="translate(-184.52907 -215.34927)" fill="#e4e4e4"/><path d="M978.498,636.10728h-27.4292v-.5a91.60366,91.60366,0,0,0-91.5-91.5h-343a91.60366,91.60366,0,0,0-91.5,91.5v.5H397.63963a23.59739,23.59739,0,0,1-23.57081-23.57081V459.62534c-7.965-4.5-14.44323-28.94043-10.23535-48.459,2.64075-12.249,10.26416-27.042,31.5857-27.958,20.75561-.89258,36.1615,18.59326,37.53759,37.35059a40.45407,40.45407,0,0,1-8.14795,27.54834h.26v21.814c45.00855-14.42334,90.08082-21.7627,133.97437-21.814a410.04761,410.04761,0,0,1,132.0293,21.97314c88.38427-28.58691,175.853-29.14307,259.99633-1.647V448.10728h.26a40.4539,40.4539,0,0,1-8.14794-27.54834c1.50927-20.57374,18.33862-37.32911,37.51562-37.35108h.06372c22.61353,0,30.61182,13.61377,33.34009,25.04053,4.82812,20.22217-4.03589,46.83935-12.0315,51.37646V612.53647A23.59739,23.59739,0,0,1,978.498,636.10728Z" transform="translate(-184.52907 -215.34927)" fill="#cacaca"/><polygon points="170.681 274.301 2.681 274.301 2.681 288.801 5.681 288.801 5.681 420.301 22.681 420.301 22.681 288.801 151.681 288.801 151.681 420.301 168.681 420.301 168.681 288.801 170.681 288.801 170.681 274.301" fill="#f0f0f0"/><path id="fe9606e2-6ed9-4b58-b7f6-0b1113d06570" data-name="Path 164" d="M785.32,478.41977s8.247-13.5304,18.83509-5.53036,30.19643,21.49809,30.19643,21.49809,4.01619,8.63364-6.37858,5.3907-44.32807-8.46163-44.32807-8.46163Z" transform="translate(-184.52907 -215.34927)" fill="#9e616a"/><path id="ba8287bb-8121-4cbb-9aec-46f53d93c6cc" data-name="Path 161" d="M744.8059,495.23642c-8.87353,0-16.99712-.8503-23.45159-2.86-7.67193-2.38888-12.489-6.252-14.31918-11.49065a13.52936,13.52936,0,0,1,2.1207-13.413c11.34941-14.78846,50.73386-18.95958,56.01832-19.45254L775.895,427.71965c.686-4.84362-2.55951-8.5104,3.04774-8.60193l66.32991-.90086c5.50683-.11572,3.94391,3.29437,4.88687,8.017l10.10577,18.04034-43.49367,18.35636,6.57592,16.02372-.42917.24933C810.18906,486.28747,773.58168,495.2353,744.8059,495.23642Z" transform="translate(-184.52907 -215.34927)" fill="#2f2e41"/><path id="a99fb781-daa8-4c07-84cd-5f59433db129" data-name="Path 162" d="M854.244,445.04432s60.74168-6.95121,56.78027,20.85361-50.17792,47.49991-120.1629,0l7.92283-13.90241s26.0794-1.29716,41.92506-8.24836Z" transform="translate(-184.52907 -215.34927)" fill="#2f2e41"/><path d="M848.63068,304.33009l-21.837-8.16738-42.3265-.54619-18.21928,8.71357,5.11715,29.40916s-10.33166,17.49424,1.0438,34.99057l2.55262,62.34306S815.76955,454.73681,850.215,426.32l-7.78524-57.964s13.02187-26.89336,2.92857-36.88445Z" transform="translate(-184.52907 -215.34927)" fill="#3f3d56"/><path id="bb186b8c-4d24-43a1-9133-0715bc8c62a5" data-name="Path 163" d="M837.72838,471.6641s-6.80169-14.3116-18.16121-7.45089-32.26011,18.25588-32.26011,18.25588-4.88857,8.17138,5.78611,6.02218,44.966-3.82624,44.966-3.82624Z" transform="translate(-184.52907 -215.34927)" fill="#9e616a"/><path d="M827.074,424.37914h-42.603a4.043,4.043,0,0,1-4.043-4.043v0l-1.8774-55.74457a4.043,4.043,0,0,1,4.043-4.043h46.35776a4.043,4.043,0,0,1,4.043,4.043v0l-1.8774,55.74457a4.043,4.043,0,0,1-4.043,4.043Z" transform="translate(-184.52907 -215.34927)" fill="#fff"/><circle cx="621.24343" cy="162.09563" r="3.75474" fill="#6c63ff"/><path d="M806.94452,402.19041a10.17911,10.17911,0,0,0-15.15768-3.724l-19.89361-12.05487L761.619,396.71406l28.33273,16.62923a10.23428,10.23428,0,0,0,16.99282-11.15288Z" transform="translate(-184.52907 -215.34927)" fill="#9e616a"/><path d="M805.98776,397.65117a10.17908,10.17908,0,0,1,15.585-.85518l21.78059-8.16588L851.544,400.6558l-30.92037,11.0998a10.23428,10.23428,0,0,1-14.63583-14.10443Z" transform="translate(-184.52907 -215.34927)" fill="#9e616a"/><path d="M846.27792,304.08652s14.14123-2.82824,17.91218,9.42749,22.62594,57.50765,16.96947,64.10688-26.397,24.51146-32.99621,28.28245-9.42747,3.771-9.42747,3.771l-8.48471,3.771-2.82824-21.68322,9.67616-5.73182,14.8353-12.18041-8.48476-25.45419Z" transform="translate(-184.52907 -215.34927)" fill="#3f3d56"/><path d="M767.88857,304.48729s-14.14123-2.82824-17.9122,9.42749-22.626,57.50764-16.96949,64.10688,26.397,24.51145,32.99617,28.28245,9.42747,3.771,9.42747,3.771l8.48475,3.771,2.82824-21.68322-9.67616-5.73181-14.8353-12.18041,13.66987-33.46757Z" transform="translate(-184.52907 -215.34927)" fill="#3f3d56"/><circle cx="622.76944" cy="39.5062" r="32.58766" fill="#9e616a"/><path d="M839.71467,231.01894a20.79319,20.79319,0,0,0-10.87981-10.51062,19.85161,19.85161,0,0,0-14.88356.013c-4.30818-2.7219-9.095-4.87974-14.13613-5.147s-10.37113,1.603-13.47774,5.71984a21.99978,21.99978,0,0,1-2.35472,3.0591c-2.4972,2.31256-6.29225,1.979-9.61146,1.50613q2.23312,1.91391,4.46735,3.82782-2.70311.70614-5.40679,1.41236,3.15476,1.91328,6.30895,3.82656c-6.10525,3.66447-8.88016,11.66273-8.1472,18.92683.69345,6.87738,4.01377,13.16629,7.983,18.756,1.58335-3.34133,1.2422-7.33945,1.216-11.1027-.02727-3.97628.67619-8.49149,3.86239-10.71375,2.14936-1.49905,4.91314-1.566,7.505-1.55178a344.79734,344.79734,0,0,1,39.11366,2.44182,11.0106,11.0106,0,0,1,5.00775,1.45243c2.87064,1.9584,3.43,5.99993,3.71825,9.54558a69.16545,69.16545,0,0,0,2.2078-17.92993C842.16734,239.922,841.63529,235.19939,839.71467,231.01894Z" transform="translate(-184.52907 -215.34927)" fill="#2f2e41"/><path id="bfa68224-49dd-4e16-b60b-f2f19785290a" data-name="Path 163" d="M582.56605,541.48816s5.74248,13.58512,16.58487,7.66763,30.74152-15.66331,30.74152-15.66331,4.87839-7.39961-5.13543-5.83547-41.96945,1.72816-41.96945,1.72816Z" transform="translate(-184.52907 -215.34927)" fill="#feb8b8"/><path d="M501.49305,255.58222a11.22308,11.22308,0,0,1,.25492,15.67288,10.75054,10.75054,0,0,1-1.34634,1.167l11.27586,37.5877-19.18831-6.00162-7.766-34.7738a11.18141,11.18141,0,0,1,1.36581-13.60954A10.76032,10.76032,0,0,1,501.49305,255.58222Z" transform="translate(-184.52907 -215.34927)" fill="#ffb6b6"/><polygon points="398.438 318.288 410.493 314.039 399.476 264.48 381.683 270.752 398.438 318.288" fill="#feb8b8"/><path id="a901ca51-195b-49ea-a48b-b72022f724d3" data-name="Path 163" d="M627.33218,520.78223s10.53629,10.32076,18.2589.68045,22.32571-26.3048,22.32571-26.3048,1.64828-8.7084-6.98827-3.40433-38.0583,17.776-38.0583,17.776Z" transform="translate(-184.52907 -215.34927)" fill="#feb8b8"/><polygon points="440.146 298.034 449.631 289.466 420.358 247.987 406.359 260.634 440.146 298.034" fill="#feb8b8"/><path d="M507.84485,294.087l2.20148,6.693,9.89689,30.06083a15.932,15.932,0,0,1-9.93475,20.23589,15.5885,15.5885,0,0,1-11.16808-.56906l-55.69326-25.34622a16.64815,16.64815,0,0,1-7.32992-24.156,15.85108,15.85108,0,0,1,21.0268-5.35754l38.60639,21.91677-4.35927-20.78626Z" transform="translate(-184.52907 -215.34927)" fill="#6c63ff"/><path d="M595.48757,510.188,576.467,518.94577l-38.74272-75.71748c-33.21381,18.54124-65.88325,32.2445-97.32709,35.05635a19.77317,19.77317,0,0,1-21.27642-17.82857q-.0783-.75965-.09872-1.5228c-.25983-11.75206,1.845-25.18561,4.88269-39.28254l53.49238.66607,4.36392,6.68009,48.22577-24.34657a19.75557,19.75557,0,0,1,26.51832,9.1234q.39183.7869.71541,1.60538Z" transform="translate(-184.52907 -215.34927)" fill="#2f2e41"/><path d="M619.48413,482.91088l-19.02056,8.7577-61.3539-60.35534c-33.21381,18.54123-65.88325,32.2445-97.32706,35.05633A19.77316,19.77316,0,0,1,420.50618,448.541q-.0783-.75954-.09871-1.52279c-.25983-11.75206,1.845-25.18561,4.88269-39.28254l56.60151-14.74744,1.25479,22.0936,48.22576-24.34658a19.75558,19.75558,0,0,1,26.51833,9.12341q.39182.78688.71541,1.60538Z" transform="translate(-184.52907 -215.34927)" fill="#2f2e41"/><ellipse cx="435.68026" cy="256.92783" rx="25.58869" ry="26.15895" transform="translate(-245.15666 -55.92898) rotate(-19.41346)" fill="#ffb6b6"/><path d="M477.5462,287.8117a2.05264,2.05264,0,0,0,1.62369,2.34151c.67376-.14761,19.286,4.28894,19.32408,3.01647a1.98375,1.98375,0,0,0,.80156-1.31708l8.30565-54.28766a2.05659,2.05659,0,0,0-.49061-1.67256c.26-1.41493-18.8303.23725-19.55182.09456a1.94986,1.94986,0,0,0-1.846,1.66Z" transform="translate(-184.52907 -215.34927)" fill="#3f3d56"/><path d="M503.75661,237.83687S487.657,238.8755,487.842,238.613c-.40257.12382-1.4043-.16694-1.45126.51278L478.77256,286.854c-.6268,1.20315,17.2532,2.92231,17.53233,3.30022,1.483.33628,7.4412-51.21776,8.02327-51.67693a.5592.5592,0,0,0-.45543-.63386A.53364.53364,0,0,0,503.75661,237.83687Z" transform="translate(-184.52907 -215.34927)" fill="#6c63ff"/><path d="M462.679,290.45116a7.09392,7.09392,0,0,0-.18074-1.865,6.93823,6.93823,0,0,0-8.24919-5.24939l-11.66418,2.69438a6.85875,6.85875,0,0,0-5.04651,8.32057,7.06593,7.06593,0,0,0,2.517,3.948,31.41772,31.41772,0,0,0-17.77451,29.60114c-3.82475,24.50956-3.40621,51.15149,2.78724,80.70157l58.14763,6.09963,4.67094-47.26414,1.70676-7.33573c.46492-1.05287.89753-2.09287,1.28742-3.13381a55.96611,55.96611,0,0,0,4.03368-18.29771,41.79532,41.79532,0,0,0-1.62372-13.28736C489.28365,311.58781,478.16068,300.26624,462.679,290.45116Z" transform="translate(-184.52907 -215.34927)" fill="#6c63ff"/><path d="M494.91464,338.67048a55.97355,55.97355,0,0,1-4.0338,18.2978c-.38983,1.0409-.82238,2.08084-1.28751,3.13387l-1.70668,7.33567c-17.79062-5.589-43.83029-43.10484-43.83029-43.10484l14.78993-8.6847Z" transform="translate(-184.52907 -215.34927)" opacity="0.2" style="isolation:isolate"/><path d="M481.8656,270.97823a11.24886,11.24886,0,0,0,8.64242,13.09486,10.794,10.794,0,0,0,1.77179.20859l11.91391,37.39158L516.66043,305.942l-13.22494-33.0959a11.21766,11.21766,0,0,0-8.81625-10.47993A10.73528,10.73528,0,0,0,481.8656,270.97823Z" transform="translate(-184.52907 -215.34927)" fill="#ffb6b6"/><path d="M497.86415,308.20476l18.50114-3.7037,12.1003,36.75144a16.18571,16.18571,0,0,1-2.92916,15.49486h0a15.50839,15.50839,0,0,1-18.17083,4.17371l-55.69445-25.34949a16.72153,16.72153,0,0,1-8.7941-21.24639h0a15.85845,15.85845,0,0,1,20.91147-9.01913,16.2714,16.2714,0,0,1,1.58229.75377l38.60042,21.91677Z" transform="translate(-184.52907 -215.34927)" fill="#6c63ff"/><path d="M446.8159,221.57306c-6.22567-1.21653-12.50512.98864-18.42763,3.161q-6.4365,2.36091-12.873,4.72179c-5.20849,1.91049-10.6789,4.00534-14.14834,8.37813s-3.89422,11.78219.6073,15.168c-11.49143-4.68967-25.03155-1.29846-34.65015,6.40271a33.3623,33.3623,0,0,0-10.79423,14.33411c-2.25962,6.22308-2.131,13.16524-.75974,19.7008s3.92817,12.75754,6.47059,18.93489c1.59891,3.88419,3.61973,8.18793,7.52839,9.56529,3.60608,1.27035,7.60316-.52186,10.33932-3.16582,4.77131-4.61051,6.78061-11.457,7.74029-18.1131.96-6.65634,1.07194-13.48933,2.91494-19.9381,1.84337-6.449,5.8459-12.71015,12.054-14.98141-2.07232,7.64262.30336,16.852,6.85047,21.29655,4.70824,3.19593,10.81493,3.56469,16.2778,2.27974,5.46254-1.28471,10.4395-4.05627,15.33888-6.79723,3.31745-1.85584,7.07659-4.44206,7.02567-8.31648-.04981-3.799-3.71661-6.36128-5.976-9.41738-4.36075-5.89835-2.98188-15.2713,2.86517-19.47559l-.716-.33683c5.66912-1.13268,11.88307-4.12514,13.08859-9.87217C458.88839,228.82839,453.04161,222.78964,446.8159,221.57306Z" transform="translate(-184.52907 -215.34927)" fill="#2f2e41"/><path d="M455.94453,485.65073a44.373,44.373,0,0,1-16.29365-3.11014,42.18786,42.18786,0,0,1-23.47147-22.442l-32.073-73.7079c-9.22144-21.192,1.11343-45.68488,23.03825-54.59864l.54473-.22144,65.52056,150.575-.54474.22144A44.36111,44.36111,0,0,1,455.94453,485.65073Z" transform="translate(-184.52907 -215.34927)" fill="#3f3d56"/><path d="M923.99949,478.43491a36.29531,36.29531,0,0,1-14.1023-2.855l-.46093-.19385,55.44116-131.81543.46094.19385a36.54169,36.54169,0,0,1,19.49414,47.79639l-27.13892,64.5249A36.55806,36.55806,0,0,1,923.99949,478.43491Z" transform="translate(-184.52907 -215.34927)" fill="#3f3d56"/><path d="M184.54588,437.4271a1.4992,1.4992,0,0,1,.65625-1.02832L237.97507,401.56a3.95449,3.95449,0,0,1-1.894-1.65924h-.00049a4.01219,4.01219,0,0,1,1.46436-5.46411l4.33008-2.5a4.0114,4.0114,0,0,1,5.46386,1.46411,3.93883,3.93883,0,0,1,.50684,1.64282l38.09375-25.14837a23.059,23.059,0,0,1,14.27051-13.15613V345.65073h14v11.08838a23.00744,23.00744,0,0,1,16,21.91162v3h-14a9,9,0,0,1-18,0h-14v-3a23.12337,23.12337,0,0,1,.40478-4.28589l-96.36914,63.61988,40.03125,48.67022c.311-.0014.62012-.00421.93311-.00421,3.19385,0,6.28857.0755,9.2373.20551a3.957,3.957,0,0,1-.22851-1.54376,4.01167,4.01167,0,0,1,4.20263-3.78644l4.99317.26019a4.01194,4.01194,0,0,1,3.78662,4.20276,3.93234,3.93234,0,0,1-.542,1.77191c8.8291.93836,14.55078,2.23181,14.55078,2.88983,0,1.07831-15.36328.05176-34.59229.00238a1.49482,1.49482,0,0,1-2.56592.45026l-.3706-.45007c-19.17236.0534-34.47119,1.07348-34.47119-.00257,0-1.01459,13.60205-3.53839,31.22607-3.94311l-39.56592-48.10425A1.50085,1.50085,0,0,1,184.54588,437.4271Z" transform="translate(-184.52907 -215.34927)" fill="#f0f0f0"/><path d="M320.37726,487.00092V418.6155c0-2.03045,3.14014-3.68229,7-3.68229s7,1.65184,7,3.68229v68.38542c0,2.03045-3.14014,3.68229-7,3.68229S320.37726,489.03137,320.37726,487.00092Z" transform="translate(-184.52907 -215.34927)" fill="#f0f0f0"/><path d="M303.62726,487.00092V418.6155c0-2.03045,3.14014-3.68229,7-3.68229s7,1.65184,7,3.68229v68.38542c0,2.03045-3.14014,3.68229-7,3.68229S303.62726,489.03137,303.62726,487.00092Z" transform="translate(-184.52907 -215.34927)" fill="#f0f0f0"/><path d="M286.87726,487.00092V418.6155c0-2.03045,3.14014-3.68229,7-3.68229s7,1.65184,7,3.68229v68.38542c0,2.03045-3.14014,3.68229-7,3.68229S286.87726,489.03137,286.87726,487.00092Z" transform="translate(-184.52907 -215.34927)" fill="#f0f0f0"/></svg>