<svg id="bf9dc0e4-8833-48d6-b723-5029900933fc" data-name="Layer 1" xmlns="http://www.w3.org/2000/svg" width="938.45709" height="497.70591" viewBox="0 0 938.45709 497.70591"><path d="M820.38528,236.78706H319.11689A13.42572,13.42572,0,0,0,305.691,250.21268V610.5416a13.42572,13.42572,0,0,0,13.42592,13.42562H820.38528a13.42571,13.42571,0,0,0,13.42591-13.42562V250.21268A13.42571,13.42571,0,0,0,820.38528,236.78706Zm-487.1543,21.06a6.48,6.48,0,1,1,6.48-6.48A6.48013,6.48013,0,0,1,333.231,257.84707Zm38.88,0a6.48,6.48,0,1,1,6.48-6.48A6.48013,6.48013,0,0,1,372.111,257.84707Zm38.88,0a6.48,6.48,0,1,1,6.48-6.48A6.48014,6.48014,0,0,1,410.991,257.84707Zm38.88,0a6.48,6.48,0,1,1,6.48-6.48A6.48013,6.48013,0,0,1,449.871,257.84707Zm38.88,0a6.48,6.48,0,1,1,6.48-6.48A6.48014,6.48014,0,0,1,488.75105,257.84707Zm38.88,0a6.48,6.48,0,1,1,6.48-6.48A6.48013,6.48013,0,0,1,527.63106,257.84707Zm38.88,0a6.48,6.48,0,1,1,6.48-6.48A6.48013,6.48013,0,0,1,566.51108,257.84707Zm38.88,0a6.48,6.48,0,1,1,6.48-6.48A6.48014,6.48014,0,0,1,605.3911,257.84707Zm38.88,0a6.48,6.48,0,1,1,6.48-6.48A6.48013,6.48013,0,0,1,644.27111,257.84707Zm38.88,0a6.48,6.48,0,1,1,6.48-6.48A6.48014,6.48014,0,0,1,683.15113,257.84707Zm38.88,0a6.48,6.48,0,1,1,6.48-6.48A6.48013,6.48013,0,0,1,722.03114,257.84707Zm38.88,0a6.48,6.48,0,1,1,6.48-6.48A6.48013,6.48013,0,0,1,760.91116,257.84707Zm38.88,0a6.48,6.48,0,1,1,6.48-6.48A6.48014,6.48014,0,0,1,799.79118,257.84707Z" transform="translate(-130.77146 -201.14705)" fill="#cacaca"/><path d="M794.46527,201.14705H293.19688A13.42571,13.42571,0,0,0,279.771,214.57266V574.90159a13.42571,13.42571,0,0,0,13.42592,13.42561H794.46527a13.42571,13.42571,0,0,0,13.42591-13.42561V214.57266A13.42571,13.42571,0,0,0,794.46527,201.14705Zm-487.1543,21.06a6.48,6.48,0,1,1,6.48-6.48A6.48013,6.48013,0,0,1,307.311,222.20705Zm38.88,0a6.48,6.48,0,1,1,6.48-6.48A6.48013,6.48013,0,0,1,346.191,222.20705Zm38.88,0a6.48,6.48,0,1,1,6.48-6.48A6.48013,6.48013,0,0,1,385.071,222.20705Zm38.88,0a6.48,6.48,0,1,1,6.48-6.48A6.48013,6.48013,0,0,1,423.951,222.20705Zm38.88,0a6.48,6.48,0,1,1,6.48-6.48A6.48014,6.48014,0,0,1,462.831,222.20705Zm38.88,0a6.48,6.48,0,1,1,6.48-6.48A6.48013,6.48013,0,0,1,501.71105,222.20705Zm38.88,0a6.48,6.48,0,1,1,6.48-6.48A6.48013,6.48013,0,0,1,540.59107,222.20705Zm38.88,0a6.48,6.48,0,1,1,6.48-6.48A6.48013,6.48013,0,0,1,579.47108,222.20705Zm38.88,0a6.48,6.48,0,1,1,6.48-6.48A6.48013,6.48013,0,0,1,618.3511,222.20705Zm38.88,0a6.48,6.48,0,1,1,6.48-6.48A6.48014,6.48014,0,0,1,657.23112,222.20705Zm38.88,0a6.48,6.48,0,1,1,6.48-6.48A6.48013,6.48013,0,0,1,696.11113,222.20705Zm38.88,0a6.48,6.48,0,1,1,6.48-6.48A6.48013,6.48013,0,0,1,734.99115,222.20705Zm38.88,0a6.48,6.48,0,1,1,6.48-6.48A6.48013,6.48013,0,0,1,773.87116,222.20705Z" transform="translate(-130.77146 -201.14705)" fill="#f0f0f0"/><path d="M416.82831,399.459c-.02724-14.29689,3.52056-28.80345,11.54558-40.762a51.66442,51.66442,0,0,1,33.43184-22.24958,41.831,41.831,0,0,1,20.08357,1.16577,36.29766,36.29766,0,0,1,15.38083,9.88793c8.04154,8.59581,13.00154,22.31371,8.33733,33.76025a21.07183,21.07183,0,0,1-11.99372,11.72282c-4.79946,1.6589-10.71413.3746-12.77763-4.75623-1.76922-4.39915.07787-9.68784,3.03142-13.12532a13.42076,13.42076,0,0,1,14.38988-4.15511c6.31773,1.78768,11.29957,6.93442,14.28211,12.619,3.46727,6.60844,4.19087,14.42251,3.46212,21.75347-1.60612,16.15707-9.96077,30.53805-16.11114,45.24592-5.71682,13.67109-10.471,29.48857-6.071,44.22326a35.8297,35.8297,0,0,0,25.41262,24.1439c11.34856,3.04282,24.62575.87911,32.68575-8.20112,3.80065-4.28172,6.57555-9.85182,6.61357-15.6696a15.31454,15.31454,0,0,0-7.56843-13.50394c-9.82107-5.495-23.08285.15365-27.19725,10.2035-2.5181,6.15072-2.04095,13.22162.33461,19.33843A35.72806,35.72806,0,0,0,536.45986,526.807c5.74419,4.26722,12.454,7.10374,19.23344,9.2741a109.3653,109.3653,0,0,0,21.69221,4.70879c14.05992,1.49918,28.73276-.84577,39.75307-10.26731,9.69323-8.287,15.02879-20.55468,17.74333-32.7716,3.14982-14.17592,2.67646-28.65381,2.70556-43.078.031-15.37113.41972-32.149,7.8249-46.04392,5.82312-10.9264,16.11537-20.49114,28.40016-23.3494a27.515,27.515,0,0,1,16.996,1.39822c1.77794.74571,2.55422-2.156.79752-2.89283-11.80475-4.95117-24.79576-1.06652-34.54208,6.47035a53.12441,53.12441,0,0,0-12.87137,14.45178,61.78227,61.78227,0,0,0-7.37659,20.25854c-5.6839,28.98472,3.10454,60.27736-10.13508,87.82588a47.66934,47.66934,0,0,1-10.79714,14.8476,40.53354,40.53354,0,0,1-18.32761,9.31466c-14.369,3.258-29.95712.167-43.63188-4.62439-13.10791-4.59275-26.20941-13.20883-28.5564-27.9561-.96731-6.07806.40394-12.87242,5.04251-17.185a17.953,17.953,0,0,1,14.65868-4.52574,12.213,12.213,0,0,1,10.30224,10.111c.93442,5.71015-1.85607,11.65338-5.57475,15.83707-8.16589,9.187-21.81461,10.47495-32.89166,6.44417a33.946,33.946,0,0,1-14.14978-9.71284,33.4459,33.4459,0,0,1-7.47685-18.97727c-1.29651-15.72888,5.5055-30.85743,11.89526-44.80437,6.50965-14.2086,13.5043-29.81213,11.85266-45.838a35.36639,35.36639,0,0,0-7.74562-19.38267c-4.10255-4.90456-9.92989-8.58907-16.42072-8.99452a16.00907,16.00907,0,0,0-13.709,6.36811c-3.07042,3.92287-4.8629,9.27955-3.558,14.22647a12.19063,12.19063,0,0,0,11.59837,8.80764c5.73946.10087,11.20283-3.33907,14.87887-7.52366,8.30914-9.45862,7.5033-23.45794,2.11514-34.15809a40.36143,40.36143,0,0,0-29.54833-21.76545c-13.37739-2.07606-27.30693,2.05138-38.02357,10.17-11.41523,8.64788-18.82563,21.617-22.30232,35.37034a83.58375,83.58375,0,0,0-2.48267,20.61846,1.5009,1.5009,0,0,0,3,0Z" transform="translate(-130.77146 -201.14705)" fill="#6c63ff"/><ellipse cx="905.95709" cy="415.82017" rx="32" ry="7" fill="#cacaca"/><rect x="903.45709" y="278.96178" width="2" height="132.68945" fill="#cacaca"/><path d="M962.397,467.64154l1.43018.8645a4.96831,4.96831,0,0,1,5.78369-5.37036l-.26123-.3429,29.11426-20.3042-.23536-.02136,1.32081-39.32105.00195.00031a8.98921,8.98921,0,0,1,13.83838-11.22772l-.66114-3.45154h11.5v-6h.65381l-8.65381-25.00006a17,17,0,0,1,34,0l-7,25.00006-1,.05554v5.94446h11.5l-.49121,3.29712a8.9878,8.9878,0,0,1,13.66846,11.38214l.002-.00031,1.3208,39.32105-1.82617.166a4.94909,4.94909,0,0,1-.20117,7.834h2.02734v38.52362l-.43066-.01807a4.96823,4.96823,0,0,1-1.09668,7.81568l1.52734.67877-5.5,20.248-5.5-21.54328,2-2.70471.11524.05115a4.92141,4.92141,0,0,1,1.646-4.83155l-1.76124-.074-2-38.14563h3.02735a4.93665,4.93665,0,0,1-.84082-7.19879l-2.18653.19879-3.95507-38.25989.00439-.00061a9.03673,9.03673,0,0,1-1.73389-2.0722l-4.81543,32.3327h-2.5v14h6.5v36h-2.0371a5.96909,5.96909,0,0,1,.72753,7h4.15235l-2.3125,49.73547a5.92427,5.92427,0,0,1,.86816,4.3404l1.44434-.10346-2.16846,57.72278a6.00063,6.00063,0,1,1-8.49463.14758l-3.67969-56.84277,1.31446-.09418a5.89035,5.89035,0,0,1-.208-3.01367l-.001.00012-3.10547-51.89227h1.80957a5.96907,5.96907,0,0,1,.72754-7h-12.07421a5.96909,5.96909,0,0,1,.72753,7h4.15235l-2.3125,49.73547a5.92427,5.92427,0,0,1,.86816,4.3404l1.44434-.10346-2.16846,57.72278a6.00063,6.00063,0,1,1-8.49463.14758l-3.67969-56.84277,1.31446-.09418a5.89035,5.89035,0,0,1-.208-3.01367l-.001.00012-3.10547-51.89227h1.80957a5.96907,5.96907,0,0,1,.72754-7h-3.03711v-36h6.5v-14h-.5l-6.35546-33.18933a9.01468,9.01468,0,0,1-2.19385,2.92883l.00439.00061-3.95508,38.25989-2.18652-.19879a4.91073,4.91073,0,0,1,.0669,6.3222l.13134.18805-.84131.52356c-.0664.05469-.1289.11365-.19775.165h-.06738l-31.32617,19.49145-1.06787-1.40234a4.92285,4.92285,0,0,1-3.02149,4.11414l.10791.06506-1.07422,3.18762-20.81689,7.81214Z" transform="translate(-130.77146 -201.14705)" fill="#e4e4e4"/><rect x="198.09479" y="387.97007" width="21.10448" height="6.66457" transform="translate(-11.1102 -244.2784) rotate(16.4912)" fill="#cacaca"/><path d="M222.67874,380.10452l-19.71-5.83a6.937,6.937,0,0,0-4.2002,13.22,1.99142,1.99142,0,0,0,.25977.09l19.71,5.84a1.22544,1.22544,0,0,0,.26025.06h.01026a6.9385,6.9385,0,0,0,3.66992-13.38Z" transform="translate(-130.77146 -201.14705)" fill="#cacaca"/><path d="M219.3887,395.6445l-.93994-.28-20.24023-5.99-.29-.09-7.87012,2.43-17.31006,47.37-19.23975,52.64-22.37988,61.24a5.22547,5.22547,0,0,0,.21973,4.24,5.32192,5.32192,0,0,0,3.26025,2.74l44.35987,13.13a5.34316,5.34316,0,0,0,6.70019-3.87l14.90967-62.15,13.11035-54.63,12-50.01.04-.15Z" transform="translate(-130.77146 -201.14705)" fill="#e4e4e4"/><path d="M354.25327,472.18283c-.53726,0-1.068.02884-1.59151.08039A16.05577,16.05577,0,1,0,328.00424,482.906a9.36276,9.36276,0,1,0,12.42549,13.491,16.05649,16.05649,0,1,0,13.82354-24.21415Z" transform="translate(-130.77146 -201.14705)" fill="#6c63ff"/><rect x="315.75221" y="492.12073" width="26.7189" height="8.43755" transform="translate(159.90342 -299.10545) rotate(29.84697)" fill="#cacaca"/><path d="M313.02835,450.06449a8.79764,8.79764,0,0,0-12.23-2.18l-21.34961,14.87a8.78826,8.78826,0,0,0,10.0498,14.42l21.3501-14.87A8.80822,8.80822,0,0,0,313.02835,450.06449Z" transform="translate(-130.77146 -201.14705)" fill="#cacaca"/><path d="M341.07864,504.82449l-1.08008-.62-23.16992-13.29-.3501-.2-10.39013.7-36.46,54.16-31.3501,46.57-42.57959,63.25a6.75772,6.75772,0,0,0,2.25,9.61l50.7998,29.15a6.739,6.739,0,0,0,9.39014-2.81l34.19971-67.99,25.21-50.11,29.30029-58.24.08985-.17Z" transform="translate(-130.77146 -201.14705)" fill="#e4e4e4"/><rect x="189.24991" y="667.61854" width="74.98181" height="13.38563" transform="translate(236.76173 -224.17686) rotate(30)" fill="#cacaca"/><path d="M811.31242,316.09343c2.59082-8.25684,8.48242-15.82971,16.63037-18.621,8.14844-2.79126,20.07979,1.46074,26.20559,7.56581C865.35364,316.20566,865.69849,329.87653,858,342c-1.53125-.08105-6.815-.141-8.36483-.199l-2.19238-7.30713v7.23511c-12.09668-.37384-24.69043-.13977-37.291.10229C809.02238,333.24767,808.7216,324.35027,811.31242,316.09343Z" transform="translate(-130.77146 -201.14705)" fill="#2f2e41"/><path d="M757.42346,447.02576a7.63359,7.63359,0,0,1,4.93392-10.61452l32.55846-61.43254,13.14176,10.14295-36.13626,57.19677a7.675,7.675,0,0,1-14.49788,4.70734Z" transform="translate(-130.77146 -201.14705)" fill="#ffb6b6"/><polygon points="669.434 441.403 658.4 441.403 653.151 398.845 669.436 398.846 669.434 441.403" fill="#ffb6b6"/><polygon points="737.434 441.403 726.4 441.403 721.151 398.845 737.436 398.846 737.434 441.403" fill="#ffb6b6"/><polygon points="713.671 199.347 716.171 205.847 715.671 212.347 667.671 206.347 669.171 200.847 674.671 194.347 713.671 199.347" fill="#ffb6b6"/><circle cx="698.20128" cy="123.37836" r="17.47509" fill="#ffb7b7"/><path d="M810.44279,354.49382l10-6,20-2,17.67717,4-.17717,32.5L846.72854,411.5145l-47-6-1.78575-10.06s-13-17.46063,1-27.46063Z" transform="translate(-130.77146 -201.14705)" fill="#6c63ff"/><path d="M846.94279,410.99382v11.1063s13,16.8937,6,29.8937L873,625H852L816.94279,478.99382,802,622H784l-3-159s1.94279-41.00618,12.94279-48.00618L799,406Z" transform="translate(-130.77146 -201.14705)" fill="#2f2e41"/><path d="M816.96525,301.76976a21.94924,21.94924,0,0,1,33.37061,19.15588c-9.76807.44922-20.0293.56617-30.43409.58637l-2.459-6.01819-1.44971,6.02265q-4.75561-.00047-9.52929-.01252A22.41133,22.41133,0,0,1,816.96525,301.76976Z" transform="translate(-130.77146 -201.14705)" fill="#2f2e41"/><path d="M702.42422,394.62139l-7.81122-3.068a4.19607,4.19607,0,1,1,3.068-7.81122l7.81122,3.068a4.19607,4.19607,0,0,1-3.068,7.81122Z" transform="translate(-130.77146 -201.14705)" fill="#6c63ff"/><path d="M876.35887,446.40807,722.0008,385.78071a6.579,6.579,0,0,0-6.02928.63729l-6.17752-2.42635a5.7709,5.7709,0,0,0-7.48125,3.26172l-1.91652,4.87947a5.7709,5.7709,0,0,0,3.26173,7.48125l5.13755,2.01788a6.58091,6.58091,0,0,0,4.00123,7.58241l154.35807,60.62735a6.59721,6.59721,0,0,0,8.5524-3.72847l4.38057-11.153A6.59721,6.59721,0,0,0,876.35887,446.40807Z" transform="translate(-130.77146 -201.14705)" fill="#3f3d56"/><path d="M912.86763,492.30452l-58.03048-22.79268L867.10923,438.267l58.03048,22.79269a10.39859,10.39859,0,0,1,5.86969,13.46422l-4.67793,11.91008A10.39861,10.39861,0,0,1,912.86763,492.30452Z" transform="translate(-130.77146 -201.14705)" fill="#2f2e41"/><path d="M922.02379,485.38184l-28.27245-11.1046a5.7992,5.7992,0,0,1-3.27357-7.51085l.87686-2.2325a5.79922,5.79922,0,0,1,7.51008-3.27535l28.27245,11.1046a5.79922,5.79922,0,0,1,3.27358,7.51085l-.87687,2.2325A5.79922,5.79922,0,0,1,922.02379,485.38184Z" transform="translate(-130.77146 -201.14705)" fill="#6c63ff"/><path d="M830.31986,433.95685a7.86147,7.86147,0,0,1,1.18259.36556l30.50722-20.99929-.69808-8.97026,13.4-2.82294,2.77908,15.76a5.97436,5.97436,0,0,1-3.241,6.39566L836.46011,442.3225a7.83917,7.83917,0,1,1-6.14025-8.36565Z" transform="translate(-130.77146 -201.14705)" fill="#ffb6b6"/><polygon points="186.777 372.097 161.567 422.207 107.507 390.997 138.857 344.427 186.777 372.097" fill="#6c63ff"/><polygon points="82.907 251.277 69.797 305.907 22.727 290.577 41.967 237.937 82.907 251.277" fill="#cacaca"/><path d="M859,414l17,10c4-2,3.22675-14.97046.78436-15.73016l-1.84155-43.276c-1-20-16.82288-14.5-16.82288-14.5l-7.17712,1.5,5,21L861.374,409.2276A5.984,5.984,0,0,0,859,414Z" transform="translate(-130.77146 -201.14705)" fill="#6c63ff"/><path d="M810.8313,354.22034s-13.72785.21649-18.01843,7.605c-3.43494,5.9151-9.85462,29.5097-12.28022,38.69147a5.99685,5.99685,0,0,0-5.93353,4.34106L793,412c4-2,2.88983-4.772,1.87555-6.20612l6.853-10.27941,8-4,3.318-35.39869Z" transform="translate(-130.77146 -201.14705)" fill="#6c63ff"/><path d="M805.14062,663.5h-7.8291l-1.39746-7.3916L792.335,663.5H771.57031a4.6677,4.6677,0,0,1-2.65234-8.50879L785.5,643.53906v-7.47265l17.44141,1.041Z" transform="translate(-130.77146 -201.14705)" fill="#2f2e41"/><path d="M874.14062,663.5h-7.8291l-1.39746-7.3916L861.335,663.5H840.57031a4.6677,4.6677,0,0,1-2.65234-8.50879L854.5,643.53906v-7.47265l17.44141,1.041Z" transform="translate(-130.77146 -201.14705)" fill="#2f2e41"/></svg>